<svg xmlns="http://www.w3.org/2000/svg" version="1.1" xmlns:xlink="http://www.w3.org/1999/xlink" xmlns:svgjs="http://svgjs.dev/svgjs" width="1920" height="1080" preserveAspectRatio="none" viewBox="0 0 1920 1080">
    <g mask="url(&quot;#SvgjsMask1007&quot;)" fill="none">
        <path d="M426.487,696.649C481.357,698.33,522.194,651.198,548.188,602.846C572.589,557.457,581.352,502.652,554.384,458.74C528.423,416.467,476.06,402.827,426.487,404.68C380.495,406.399,337.016,427.783,314.143,467.721C291.403,507.427,296.894,554.687,317.052,595.764C340.479,643.502,373.336,695.02,426.487,696.649" fill="rgba(187, 183, 219, 0.19)" class="triangle-float1"></path>
        <path d="M1226.502,493.03C1294.994,495.419,1363.262,463.746,1396.25,403.674C1428.23,345.438,1412.616,274.874,1377.152,218.692C1344.265,166.591,1288.074,132.533,1226.502,134.755C1168.341,136.854,1122.911,178.659,1093.579,228.926C1063.956,279.69,1049.671,340.007,1076.095,392.507C1105.152,450.239,1161.909,490.777,1226.502,493.03" fill="rgba(187, 183, 219, 0.19)" class="triangle-float1"></path>
        <path d="M139.176,1020.828C188.104,1022.061,224.785,980.979,248.363,938.089C270.923,897.051,278.895,848.438,256.577,807.268C233.252,764.242,188.064,734.37,139.176,736.676C93.381,738.836,60.338,776.666,39.506,817.505C20.786,854.202,20.991,895.823,39.124,932.814C60.079,975.561,91.584,1019.628,139.176,1020.828" fill="rgba(187, 183, 219, 0.19)" class="triangle-float3"></path>
        <path d="M342.182,550.012C427.134,546.891,502.7,500.3,545.921,427.099C589.937,352.551,598.1,261.611,557.665,185.061C514.449,103.246,434.688,39.402,342.182,41.389C252.32,43.319,187.03,116.105,142.16,193.987C97.383,271.709,66.822,364.883,110.757,443.084C155.369,522.489,251.164,553.355,342.182,550.012" fill="rgba(187, 183, 219, 0.19)" class="triangle-float3"></path>
        <path d="M331.143,486.203C418.228,483.183,489.921,422.249,529.88,344.814C566.526,273.799,560.69,189.803,519.403,121.382C479.532,55.308,408.303,14.093,331.143,15.466C256.242,16.799,195.035,65.115,154.141,127.881C108.047,198.628,69.611,283.773,107.008,359.478C147.749,441.953,239.209,489.391,331.143,486.203" fill="rgba(187, 183, 219, 0.19)" class="triangle-float2"></path>
        <path d="M1885.462,474.652C1978.141,476.474,2061.82,423.195,2109.428,343.658C2158.444,261.768,2175.966,156.648,2123.544,76.895C2074.62,2.465,1974.521,1.575,1885.462,2.929C1799.744,4.232,1705.28,11.407,1659.596,83.948C1611.667,160.054,1631.229,257.278,1676.243,335.144C1721.207,412.923,1795.639,472.887,1885.462,474.652" fill="rgba(187, 183, 219, 0.19)" class="triangle-float1"></path>
    </g>
    <defs>
        <mask id="SvgjsMask1007">
            <rect width="1920" height="1080" fill="#ffffff"></rect>
        </mask>
        <style>
            @keyframes float1 {
                    0%{transform: translate(0, 0)}
                    50%{transform: translate(-10px, 0)}
                    100%{transform: translate(0, 0)}
                }

                .triangle-float1 {
                    animation: float1 5s infinite;
                }

                @keyframes float2 {
                    0%{transform: translate(0, 0)}
                    50%{transform: translate(-5px, -5px)}
                    100%{transform: translate(0, 0)}
                }

                .triangle-float2 {
                    animation: float2 4s infinite;
                }

                @keyframes float3 {
                    0%{transform: translate(0, 0)}
                    50%{transform: translate(0, -10px)}
                    100%{transform: translate(0, 0)}
                }

                .triangle-float3 {
                    animation: float3 6s infinite;
                }
        </style>
    </defs>
</svg>