<svg xmlns="http://www.w3.org/2000/svg" version="1.1" xmlns:xlink="http://www.w3.org/1999/xlink" xmlns:svgjs="http://svgjs.dev/svgjs" width="1600" height="800" preserveAspectRatio="none" viewBox="0 0 1600 800">
    <g mask="url(&quot;#SvgjsMask1011&quot;)" fill="none">
        <path d="M890.38 834.02C1031.83 808.03 1038.02 505.37 1321.33 452.92 1604.63 400.47 1610.42 95.38 1752.27 68.92" stroke="rgba(109, 160, 213, 0.42)" stroke-width="2"></path>
        <path d="M590.58 908.77C730.86 852.99 634.7 448.99 949.71 423.3 1264.72 397.61 1483.1 248.58 1667.97 247.3" stroke="rgba(109, 160, 213, 0.42)" stroke-width="2"></path>
        <path d="M534.68 888C777.47 812.88 833.41 130.8 1197.04 116.83 1560.67 102.86 1688.57 283.53 1859.4 284.83" stroke="rgba(109, 160, 213, 0.42)" stroke-width="2"></path>
        <path d="M77.12 807.61C311.42 782.1 460.99 270.24 851.4 269.82 1241.82 269.4 1414.8 598.68 1625.69 605.82" stroke="rgba(109, 160, 213, 0.42)" stroke-width="2"></path>
        <path d="M953.44 925.85C1124.9 830.87 1136.78 258.72 1354.09 251.9 1571.4 245.08 1625.75 566.67 1754.74 587.9" stroke="rgba(109, 160, 213, 0.42)" stroke-width="2"></path>
    </g>
    <defs>
        <mask id="SvgjsMask1011">
            <rect width="1600" height="800" fill="#ffffff"></rect>
        </mask>
    </defs>
</svg>