<svg xmlns="http://www.w3.org/2000/svg" version="1.1" xmlns:xlink="http://www.w3.org/1999/xlink" xmlns:svgjs="http://svgjs.dev/svgjs" width="1920" height="1080" preserveAspectRatio="none" viewBox="0 0 1920 1080">
    <g mask="url(&quot;#SvgjsMask1001&quot;)" fill="none">
        <path d="M110.24 969.41L151.81 993.41L151.81 1041.41L110.24 1065.41L68.67 1041.41L68.67 993.41zM193.38 105.41L234.95 129.41L234.95 177.41L193.38 201.41L151.81 177.41L151.81 129.41zM234.95 465.41L276.52 489.41L276.52 537.41L234.95 561.41L193.38 537.41L193.38 489.41zM234.95 609.41L276.52 633.41L276.52 681.41L234.95 705.41L193.38 681.41L193.38 633.41zM401.23 1041.41L442.8 1065.41L442.8 1113.41L401.23 1137.41L359.66 1113.41L359.66 1065.41zM484.37 321.41L525.94 345.41L525.94 393.41L484.37 417.41L442.8 393.41L442.8 345.41zM484.37 609.41L525.94 633.41L525.94 681.41L484.37 705.41L442.8 681.41L442.8 633.41zM442.8 681.41L484.37 705.41L484.37 753.41L442.8 777.41L401.23 753.41L401.23 705.41zM525.94 -38.59L567.52 -14.59L567.52 33.41L525.94 57.41L484.37 33.41L484.37 -14.59zM609.09 969.41L650.66 993.41L650.66 1041.41L609.09 1065.41L567.52 1041.41L567.52 993.41zM692.23 825.41L733.8 849.41L733.8 897.41L692.23 921.41L650.66 897.41L650.66 849.41zM858.51 -38.59L900.08 -14.59L900.08 33.41L858.51 57.41L816.94 33.41L816.94 -14.59zM1066.36 321.41L1107.93 345.41L1107.93 393.41L1066.36 417.41L1024.79 393.41L1024.79 345.41zM1066.36 897.41L1107.93 921.41L1107.93 969.41L1066.36 993.41L1024.79 969.41L1024.79 921.41zM1149.5 321.41L1191.07 345.41L1191.07 393.41L1149.5 417.41L1107.93 393.41L1107.93 345.41zM1149.5 1041.41L1191.07 1065.41L1191.07 1113.41L1149.5 1137.41L1107.93 1113.41L1107.93 1065.41zM1191.07 -38.59L1232.64 -14.59L1232.64 33.41L1191.07 57.41L1149.5 33.41L1149.5 -14.59zM1232.64 465.41L1274.21 489.41L1274.21 537.41L1232.64 561.41L1191.07 537.41L1191.07 489.41zM1398.92 177.41L1440.49 201.41L1440.49 249.41L1398.92 273.41L1357.35 249.41L1357.35 201.41zM1482.06 897.41L1523.63 921.41L1523.63 969.41L1482.06 993.41L1440.49 969.41L1440.49 921.41zM1523.63 681.41L1565.2 705.41L1565.2 753.41L1523.63 777.41L1482.06 753.41L1482.06 705.41zM1606.78 -38.59L1648.35 -14.59L1648.35 33.41L1606.78 57.41L1565.2 33.41L1565.2 -14.59zM1648.35 33.41L1689.92 57.41L1689.92 105.41L1648.35 129.41L1606.78 105.41L1606.78 57.41zM1689.92 105.41L1731.49 129.41L1731.49 177.41L1689.92 201.41L1648.35 177.41L1648.35 129.41zM1773.06 393.41L1814.63 417.41L1814.63 465.41L1773.06 489.41L1731.49 465.41L1731.49 417.41zM1773.06 969.41L1814.63 993.41L1814.63 1041.41L1773.06 1065.41L1731.49 1041.41L1731.49 993.41zM1856.2 249.41L1897.77 273.41L1897.77 321.41L1856.2 345.41L1814.63 321.41L1814.63 273.41zM1856.2 969.41L1897.77 993.41L1897.77 1041.41L1856.2 1065.41L1814.63 1041.41L1814.63 993.41zM1897.77 1041.41L1939.34 1065.41L1939.34 1113.41L1897.77 1137.41L1856.2 1113.41L1856.2 1065.41zM1980.91 753.41L2022.48 777.41L2022.48 825.41L1980.91 849.41L1939.34 825.41L1939.34 777.41z" stroke="rgba(78, 97, 116, 0.22)" stroke-width="2"></path>
        <path d="M105.44 969.41 a4.8 4.8 0 1 0 9.6 0 a4.8 4.8 0 1 0 -9.6 0zM147.01 993.41 a4.8 4.8 0 1 0 9.6 0 a4.8 4.8 0 1 0 -9.6 0zM147.01 1041.41 a4.8 4.8 0 1 0 9.6 0 a4.8 4.8 0 1 0 -9.6 0zM105.44 1065.41 a4.8 4.8 0 1 0 9.6 0 a4.8 4.8 0 1 0 -9.6 0zM63.87 1041.41 a4.8 4.8 0 1 0 9.6 0 a4.8 4.8 0 1 0 -9.6 0zM63.87 993.41 a4.8 4.8 0 1 0 9.6 0 a4.8 4.8 0 1 0 -9.6 0zM188.58 105.41 a4.8 4.8 0 1 0 9.6 0 a4.8 4.8 0 1 0 -9.6 0zM230.15 129.41 a4.8 4.8 0 1 0 9.6 0 a4.8 4.8 0 1 0 -9.6 0zM230.15 177.41 a4.8 4.8 0 1 0 9.6 0 a4.8 4.8 0 1 0 -9.6 0zM188.58 201.41 a4.8 4.8 0 1 0 9.6 0 a4.8 4.8 0 1 0 -9.6 0zM147.01 177.41 a4.8 4.8 0 1 0 9.6 0 a4.8 4.8 0 1 0 -9.6 0zM147.01 129.41 a4.8 4.8 0 1 0 9.6 0 a4.8 4.8 0 1 0 -9.6 0zM230.15 465.41 a4.8 4.8 0 1 0 9.6 0 a4.8 4.8 0 1 0 -9.6 0zM271.72 489.41 a4.8 4.8 0 1 0 9.6 0 a4.8 4.8 0 1 0 -9.6 0zM271.72 537.41 a4.8 4.8 0 1 0 9.6 0 a4.8 4.8 0 1 0 -9.6 0zM230.15 561.41 a4.8 4.8 0 1 0 9.6 0 a4.8 4.8 0 1 0 -9.6 0zM188.58 537.41 a4.8 4.8 0 1 0 9.6 0 a4.8 4.8 0 1 0 -9.6 0zM188.58 489.41 a4.8 4.8 0 1 0 9.6 0 a4.8 4.8 0 1 0 -9.6 0zM230.15 609.41 a4.8 4.8 0 1 0 9.6 0 a4.8 4.8 0 1 0 -9.6 0zM271.72 633.41 a4.8 4.8 0 1 0 9.6 0 a4.8 4.8 0 1 0 -9.6 0zM271.72 681.41 a4.8 4.8 0 1 0 9.6 0 a4.8 4.8 0 1 0 -9.6 0zM230.15 705.41 a4.8 4.8 0 1 0 9.6 0 a4.8 4.8 0 1 0 -9.6 0zM188.58 681.41 a4.8 4.8 0 1 0 9.6 0 a4.8 4.8 0 1 0 -9.6 0zM188.58 633.41 a4.8 4.8 0 1 0 9.6 0 a4.8 4.8 0 1 0 -9.6 0zM396.43 1041.41 a4.8 4.8 0 1 0 9.6 0 a4.8 4.8 0 1 0 -9.6 0zM438 1065.41 a4.8 4.8 0 1 0 9.6 0 a4.8 4.8 0 1 0 -9.6 0zM438 1113.41 a4.8 4.8 0 1 0 9.6 0 a4.8 4.8 0 1 0 -9.6 0zM396.43 1137.41 a4.8 4.8 0 1 0 9.6 0 a4.8 4.8 0 1 0 -9.6 0zM354.86 1113.41 a4.8 4.8 0 1 0 9.6 0 a4.8 4.8 0 1 0 -9.6 0zM354.86 1065.41 a4.8 4.8 0 1 0 9.6 0 a4.8 4.8 0 1 0 -9.6 0zM479.57 321.41 a4.8 4.8 0 1 0 9.6 0 a4.8 4.8 0 1 0 -9.6 0zM521.14 345.41 a4.8 4.8 0 1 0 9.6 0 a4.8 4.8 0 1 0 -9.6 0zM521.14 393.41 a4.8 4.8 0 1 0 9.6 0 a4.8 4.8 0 1 0 -9.6 0zM479.57 417.41 a4.8 4.8 0 1 0 9.6 0 a4.8 4.8 0 1 0 -9.6 0zM438 393.41 a4.8 4.8 0 1 0 9.6 0 a4.8 4.8 0 1 0 -9.6 0zM438 345.41 a4.8 4.8 0 1 0 9.6 0 a4.8 4.8 0 1 0 -9.6 0zM479.57 609.41 a4.8 4.8 0 1 0 9.6 0 a4.8 4.8 0 1 0 -9.6 0zM521.14 633.41 a4.8 4.8 0 1 0 9.6 0 a4.8 4.8 0 1 0 -9.6 0zM521.14 681.41 a4.8 4.8 0 1 0 9.6 0 a4.8 4.8 0 1 0 -9.6 0zM479.57 705.41 a4.8 4.8 0 1 0 9.6 0 a4.8 4.8 0 1 0 -9.6 0zM438 681.41 a4.8 4.8 0 1 0 9.6 0 a4.8 4.8 0 1 0 -9.6 0zM438 633.41 a4.8 4.8 0 1 0 9.6 0 a4.8 4.8 0 1 0 -9.6 0zM479.57 753.41 a4.8 4.8 0 1 0 9.6 0 a4.8 4.8 0 1 0 -9.6 0zM438 777.41 a4.8 4.8 0 1 0 9.6 0 a4.8 4.8 0 1 0 -9.6 0zM396.43 753.41 a4.8 4.8 0 1 0 9.6 0 a4.8 4.8 0 1 0 -9.6 0zM396.43 705.41 a4.8 4.8 0 1 0 9.6 0 a4.8 4.8 0 1 0 -9.6 0zM521.14 -38.59 a4.8 4.8 0 1 0 9.6 0 a4.8 4.8 0 1 0 -9.6 0zM562.72 -14.59 a4.8 4.8 0 1 0 9.6 0 a4.8 4.8 0 1 0 -9.6 0zM562.72 33.41 a4.8 4.8 0 1 0 9.6 0 a4.8 4.8 0 1 0 -9.6 0zM521.14 57.41 a4.8 4.8 0 1 0 9.6 0 a4.8 4.8 0 1 0 -9.6 0zM479.57 33.41 a4.8 4.8 0 1 0 9.6 0 a4.8 4.8 0 1 0 -9.6 0zM479.57 -14.59 a4.8 4.8 0 1 0 9.6 0 a4.8 4.8 0 1 0 -9.6 0zM604.29 969.41 a4.8 4.8 0 1 0 9.6 0 a4.8 4.8 0 1 0 -9.6 0zM645.86 993.41 a4.8 4.8 0 1 0 9.6 0 a4.8 4.8 0 1 0 -9.6 0zM645.86 1041.41 a4.8 4.8 0 1 0 9.6 0 a4.8 4.8 0 1 0 -9.6 0zM604.29 1065.41 a4.8 4.8 0 1 0 9.6 0 a4.8 4.8 0 1 0 -9.6 0zM562.72 1041.41 a4.8 4.8 0 1 0 9.6 0 a4.8 4.8 0 1 0 -9.6 0zM562.72 993.41 a4.8 4.8 0 1 0 9.6 0 a4.8 4.8 0 1 0 -9.6 0zM687.43 825.41 a4.8 4.8 0 1 0 9.6 0 a4.8 4.8 0 1 0 -9.6 0zM729 849.41 a4.8 4.8 0 1 0 9.6 0 a4.8 4.8 0 1 0 -9.6 0zM729 897.41 a4.8 4.8 0 1 0 9.6 0 a4.8 4.8 0 1 0 -9.6 0zM687.43 921.41 a4.8 4.8 0 1 0 9.6 0 a4.8 4.8 0 1 0 -9.6 0zM645.86 897.41 a4.8 4.8 0 1 0 9.6 0 a4.8 4.8 0 1 0 -9.6 0zM645.86 849.41 a4.8 4.8 0 1 0 9.6 0 a4.8 4.8 0 1 0 -9.6 0zM853.71 -38.59 a4.8 4.8 0 1 0 9.6 0 a4.8 4.8 0 1 0 -9.6 0zM895.28 -14.59 a4.8 4.8 0 1 0 9.6 0 a4.8 4.8 0 1 0 -9.6 0zM895.28 33.41 a4.8 4.8 0 1 0 9.6 0 a4.8 4.8 0 1 0 -9.6 0zM853.71 57.41 a4.8 4.8 0 1 0 9.6 0 a4.8 4.8 0 1 0 -9.6 0zM812.14 33.41 a4.8 4.8 0 1 0 9.6 0 a4.8 4.8 0 1 0 -9.6 0zM812.14 -14.59 a4.8 4.8 0 1 0 9.6 0 a4.8 4.8 0 1 0 -9.6 0zM1061.56 321.41 a4.8 4.8 0 1 0 9.6 0 a4.8 4.8 0 1 0 -9.6 0zM1103.13 345.41 a4.8 4.8 0 1 0 9.6 0 a4.8 4.8 0 1 0 -9.6 0zM1103.13 393.41 a4.8 4.8 0 1 0 9.6 0 a4.8 4.8 0 1 0 -9.6 0zM1061.56 417.41 a4.8 4.8 0 1 0 9.6 0 a4.8 4.8 0 1 0 -9.6 0zM1019.99 393.41 a4.8 4.8 0 1 0 9.6 0 a4.8 4.8 0 1 0 -9.6 0zM1019.99 345.41 a4.8 4.8 0 1 0 9.6 0 a4.8 4.8 0 1 0 -9.6 0zM1061.56 897.41 a4.8 4.8 0 1 0 9.6 0 a4.8 4.8 0 1 0 -9.6 0zM1103.13 921.41 a4.8 4.8 0 1 0 9.6 0 a4.8 4.8 0 1 0 -9.6 0zM1103.13 969.41 a4.8 4.8 0 1 0 9.6 0 a4.8 4.8 0 1 0 -9.6 0zM1061.56 993.41 a4.8 4.8 0 1 0 9.6 0 a4.8 4.8 0 1 0 -9.6 0zM1019.99 969.41 a4.8 4.8 0 1 0 9.6 0 a4.8 4.8 0 1 0 -9.6 0zM1019.99 921.41 a4.8 4.8 0 1 0 9.6 0 a4.8 4.8 0 1 0 -9.6 0zM1144.7 321.41 a4.8 4.8 0 1 0 9.6 0 a4.8 4.8 0 1 0 -9.6 0zM1186.27 345.41 a4.8 4.8 0 1 0 9.6 0 a4.8 4.8 0 1 0 -9.6 0zM1186.27 393.41 a4.8 4.8 0 1 0 9.6 0 a4.8 4.8 0 1 0 -9.6 0zM1144.7 417.41 a4.8 4.8 0 1 0 9.6 0 a4.8 4.8 0 1 0 -9.6 0zM1144.7 1041.41 a4.8 4.8 0 1 0 9.6 0 a4.8 4.8 0 1 0 -9.6 0zM1186.27 1065.41 a4.8 4.8 0 1 0 9.6 0 a4.8 4.8 0 1 0 -9.6 0zM1186.27 1113.41 a4.8 4.8 0 1 0 9.6 0 a4.8 4.8 0 1 0 -9.6 0zM1144.7 1137.41 a4.8 4.8 0 1 0 9.6 0 a4.8 4.8 0 1 0 -9.6 0zM1103.13 1113.41 a4.8 4.8 0 1 0 9.6 0 a4.8 4.8 0 1 0 -9.6 0zM1103.13 1065.41 a4.8 4.8 0 1 0 9.6 0 a4.8 4.8 0 1 0 -9.6 0zM1186.27 -38.59 a4.8 4.8 0 1 0 9.6 0 a4.8 4.8 0 1 0 -9.6 0zM1227.84 -14.59 a4.8 4.8 0 1 0 9.6 0 a4.8 4.8 0 1 0 -9.6 0zM1227.84 33.41 a4.8 4.8 0 1 0 9.6 0 a4.8 4.8 0 1 0 -9.6 0zM1186.27 57.41 a4.8 4.8 0 1 0 9.6 0 a4.8 4.8 0 1 0 -9.6 0zM1144.7 33.41 a4.8 4.8 0 1 0 9.6 0 a4.8 4.8 0 1 0 -9.6 0zM1144.7 -14.59 a4.8 4.8 0 1 0 9.6 0 a4.8 4.8 0 1 0 -9.6 0zM1227.84 465.41 a4.8 4.8 0 1 0 9.6 0 a4.8 4.8 0 1 0 -9.6 0zM1269.41 489.41 a4.8 4.8 0 1 0 9.6 0 a4.8 4.8 0 1 0 -9.6 0zM1269.41 537.41 a4.8 4.8 0 1 0 9.6 0 a4.8 4.8 0 1 0 -9.6 0zM1227.84 561.41 a4.8 4.8 0 1 0 9.6 0 a4.8 4.8 0 1 0 -9.6 0zM1186.27 537.41 a4.8 4.8 0 1 0 9.6 0 a4.8 4.8 0 1 0 -9.6 0zM1186.27 489.41 a4.8 4.8 0 1 0 9.6 0 a4.8 4.8 0 1 0 -9.6 0zM1394.12 177.41 a4.8 4.8 0 1 0 9.6 0 a4.8 4.8 0 1 0 -9.6 0zM1435.69 201.41 a4.8 4.8 0 1 0 9.6 0 a4.8 4.8 0 1 0 -9.6 0zM1435.69 249.41 a4.8 4.8 0 1 0 9.6 0 a4.8 4.8 0 1 0 -9.6 0zM1394.12 273.41 a4.8 4.8 0 1 0 9.6 0 a4.8 4.8 0 1 0 -9.6 0zM1352.55 249.41 a4.8 4.8 0 1 0 9.6 0 a4.8 4.8 0 1 0 -9.6 0zM1352.55 201.41 a4.8 4.8 0 1 0 9.6 0 a4.8 4.8 0 1 0 -9.6 0zM1477.26 897.41 a4.8 4.8 0 1 0 9.6 0 a4.8 4.8 0 1 0 -9.6 0zM1518.83 921.41 a4.8 4.8 0 1 0 9.6 0 a4.8 4.8 0 1 0 -9.6 0zM1518.83 969.41 a4.8 4.8 0 1 0 9.6 0 a4.8 4.8 0 1 0 -9.6 0zM1477.26 993.41 a4.8 4.8 0 1 0 9.6 0 a4.8 4.8 0 1 0 -9.6 0zM1435.69 969.41 a4.8 4.8 0 1 0 9.6 0 a4.8 4.8 0 1 0 -9.6 0zM1435.69 921.41 a4.8 4.8 0 1 0 9.6 0 a4.8 4.8 0 1 0 -9.6 0zM1518.83 681.41 a4.8 4.8 0 1 0 9.6 0 a4.8 4.8 0 1 0 -9.6 0zM1560.4 705.41 a4.8 4.8 0 1 0 9.6 0 a4.8 4.8 0 1 0 -9.6 0zM1560.4 753.41 a4.8 4.8 0 1 0 9.6 0 a4.8 4.8 0 1 0 -9.6 0zM1518.83 777.41 a4.8 4.8 0 1 0 9.6 0 a4.8 4.8 0 1 0 -9.6 0zM1477.26 753.41 a4.8 4.8 0 1 0 9.6 0 a4.8 4.8 0 1 0 -9.6 0zM1477.26 705.41 a4.8 4.8 0 1 0 9.6 0 a4.8 4.8 0 1 0 -9.6 0zM1601.98 -38.59 a4.8 4.8 0 1 0 9.6 0 a4.8 4.8 0 1 0 -9.6 0zM1643.55 -14.59 a4.8 4.8 0 1 0 9.6 0 a4.8 4.8 0 1 0 -9.6 0zM1643.55 33.41 a4.8 4.8 0 1 0 9.6 0 a4.8 4.8 0 1 0 -9.6 0zM1601.98 57.41 a4.8 4.8 0 1 0 9.6 0 a4.8 4.8 0 1 0 -9.6 0zM1560.4 33.41 a4.8 4.8 0 1 0 9.6 0 a4.8 4.8 0 1 0 -9.6 0zM1560.4 -14.59 a4.8 4.8 0 1 0 9.6 0 a4.8 4.8 0 1 0 -9.6 0zM1685.12 57.41 a4.8 4.8 0 1 0 9.6 0 a4.8 4.8 0 1 0 -9.6 0zM1685.12 105.41 a4.8 4.8 0 1 0 9.6 0 a4.8 4.8 0 1 0 -9.6 0zM1643.55 129.41 a4.8 4.8 0 1 0 9.6 0 a4.8 4.8 0 1 0 -9.6 0zM1601.98 105.41 a4.8 4.8 0 1 0 9.6 0 a4.8 4.8 0 1 0 -9.6 0zM1726.69 129.41 a4.8 4.8 0 1 0 9.6 0 a4.8 4.8 0 1 0 -9.6 0zM1726.69 177.41 a4.8 4.8 0 1 0 9.6 0 a4.8 4.8 0 1 0 -9.6 0zM1685.12 201.41 a4.8 4.8 0 1 0 9.6 0 a4.8 4.8 0 1 0 -9.6 0zM1643.55 177.41 a4.8 4.8 0 1 0 9.6 0 a4.8 4.8 0 1 0 -9.6 0zM1768.26 393.41 a4.8 4.8 0 1 0 9.6 0 a4.8 4.8 0 1 0 -9.6 0zM1809.83 417.41 a4.8 4.8 0 1 0 9.6 0 a4.8 4.8 0 1 0 -9.6 0zM1809.83 465.41 a4.8 4.8 0 1 0 9.6 0 a4.8 4.8 0 1 0 -9.6 0zM1768.26 489.41 a4.8 4.8 0 1 0 9.6 0 a4.8 4.8 0 1 0 -9.6 0zM1726.69 465.41 a4.8 4.8 0 1 0 9.6 0 a4.8 4.8 0 1 0 -9.6 0zM1726.69 417.41 a4.8 4.8 0 1 0 9.6 0 a4.8 4.8 0 1 0 -9.6 0zM1768.26 969.41 a4.8 4.8 0 1 0 9.6 0 a4.8 4.8 0 1 0 -9.6 0zM1809.83 993.41 a4.8 4.8 0 1 0 9.6 0 a4.8 4.8 0 1 0 -9.6 0zM1809.83 1041.41 a4.8 4.8 0 1 0 9.6 0 a4.8 4.8 0 1 0 -9.6 0zM1768.26 1065.41 a4.8 4.8 0 1 0 9.6 0 a4.8 4.8 0 1 0 -9.6 0zM1726.69 1041.41 a4.8 4.8 0 1 0 9.6 0 a4.8 4.8 0 1 0 -9.6 0zM1726.69 993.41 a4.8 4.8 0 1 0 9.6 0 a4.8 4.8 0 1 0 -9.6 0zM1851.4 249.41 a4.8 4.8 0 1 0 9.6 0 a4.8 4.8 0 1 0 -9.6 0zM1892.97 273.41 a4.8 4.8 0 1 0 9.6 0 a4.8 4.8 0 1 0 -9.6 0zM1892.97 321.41 a4.8 4.8 0 1 0 9.6 0 a4.8 4.8 0 1 0 -9.6 0zM1851.4 345.41 a4.8 4.8 0 1 0 9.6 0 a4.8 4.8 0 1 0 -9.6 0zM1809.83 321.41 a4.8 4.8 0 1 0 9.6 0 a4.8 4.8 0 1 0 -9.6 0zM1809.83 273.41 a4.8 4.8 0 1 0 9.6 0 a4.8 4.8 0 1 0 -9.6 0zM1851.4 969.41 a4.8 4.8 0 1 0 9.6 0 a4.8 4.8 0 1 0 -9.6 0zM1892.97 993.41 a4.8 4.8 0 1 0 9.6 0 a4.8 4.8 0 1 0 -9.6 0zM1892.97 1041.41 a4.8 4.8 0 1 0 9.6 0 a4.8 4.8 0 1 0 -9.6 0zM1851.4 1065.41 a4.8 4.8 0 1 0 9.6 0 a4.8 4.8 0 1 0 -9.6 0zM1934.54 1065.41 a4.8 4.8 0 1 0 9.6 0 a4.8 4.8 0 1 0 -9.6 0zM1934.54 1113.41 a4.8 4.8 0 1 0 9.6 0 a4.8 4.8 0 1 0 -9.6 0zM1892.97 1137.41 a4.8 4.8 0 1 0 9.6 0 a4.8 4.8 0 1 0 -9.6 0zM1851.4 1113.41 a4.8 4.8 0 1 0 9.6 0 a4.8 4.8 0 1 0 -9.6 0zM1976.11 753.41 a4.8 4.8 0 1 0 9.6 0 a4.8 4.8 0 1 0 -9.6 0zM2017.68 777.41 a4.8 4.8 0 1 0 9.6 0 a4.8 4.8 0 1 0 -9.6 0zM2017.68 825.41 a4.8 4.8 0 1 0 9.6 0 a4.8 4.8 0 1 0 -9.6 0zM1976.11 849.41 a4.8 4.8 0 1 0 9.6 0 a4.8 4.8 0 1 0 -9.6 0zM1934.54 825.41 a4.8 4.8 0 1 0 9.6 0 a4.8 4.8 0 1 0 -9.6 0zM1934.54 777.41 a4.8 4.8 0 1 0 9.6 0 a4.8 4.8 0 1 0 -9.6 0z" fill="rgba(78, 97, 116, 0.22)"></path>
    </g>
    <defs>
        <mask id="SvgjsMask1001">
            <rect width="1920" height="1080" fill="#ffffff"></rect>
        </mask>
    </defs>
</svg>